<svg width="88" height="157" viewBox="0 0 88 157" fill="none" xmlns="http://www.w3.org/2000/svg">
<g filter="url(#filter0_f_9_2)">
<path d="M80.6694 142C79.9568 142 79.2442 141.982 78.5133 141.945C70.2544 141.491 62.5618 138.49 57.9573 133.907L21.8152 97.9158C17.2472 93.3692 14.7622 85.9491 15.018 77.5833C15.2738 69.472 18.1242 61.9246 22.674 57.4144L37.3099 42.8469C37.7301 42.4287 38.4062 42.4287 38.8265 42.8469C39.2467 43.2652 39.2467 43.9381 38.8265 44.3564L24.1905 58.9239C20.0245 63.0704 17.4116 70.0722 17.1741 77.6378C16.9365 85.3125 19.2388 92.3144 23.3318 96.3881L59.4921 132.379C63.7313 136.599 70.8939 139.381 78.6412 139.799C86.48 140.218 93.5512 138.09 97.5711 134.089L112.646 119.085C113.066 118.667 113.742 118.667 114.162 119.085C114.582 119.503 114.582 120.176 114.162 120.594L99.0877 135.598C94.9765 139.727 88.3437 142 80.6694 142ZM127.61 106.373C127.336 106.373 127.062 106.263 126.843 106.063C126.423 105.645 126.423 104.972 126.843 104.554L134.17 97.2611C138.226 93.2237 140.73 86.5856 140.839 79.5292C140.967 72.2728 138.647 65.7438 134.499 61.5973L96.6209 23.8966C92.4732 19.7682 85.5664 17.2403 78.1479 17.1494C70.7477 17.0584 63.9322 19.3681 59.9124 23.3692L50.4475 32.7898C50.0272 33.2081 49.3512 33.2081 48.9309 32.7898C48.5106 32.3715 48.5106 31.6986 48.9309 31.2803L58.3958 21.8597C62.7994 17.4585 70.1996 14.8942 78.1662 15.0033C86.2607 15.1125 93.533 17.8041 98.1375 22.3689L136.015 60.0696C140.583 64.6162 143.123 71.709 142.995 79.5474C142.867 87.1494 140.127 94.3331 135.687 98.7706L128.359 106.063C128.159 106.263 127.884 106.373 127.61 106.373Z" fill="#00FF68"/>
</g>
<defs>
<filter id="filter0_f_9_2" x="0" y="0" width="158" height="157" filterUnits="userSpaceOnUse" color-interpolation-filters="sRGB">
<feFlood flood-opacity="0" result="BackgroundImageFix"/>
<feBlend mode="normal" in="SourceGraphic" in2="BackgroundImageFix" result="shape"/>
<feGaussianBlur stdDeviation="7.5" result="effect1_foregroundBlur_9_2"/>
</filter>
</defs>
</svg>
