<svg width="38" height="37" viewBox="0 0 38 37" fill="none" xmlns="http://www.w3.org/2000/svg">
<path d="M19.4956 37C19.2841 37 19.0725 36.9947 18.8555 36.9841C16.4036 36.8516 14.1199 35.9774 12.7529 34.6422L2.02326 24.1566C0.667127 22.832 -0.0706072 20.6702 0.00533604 18.2329C0.0812792 15.8698 0.927503 13.671 2.27821 12.3569L6.62324 8.11289C6.74801 7.99103 6.94871 7.99103 7.07348 8.11289C7.19824 8.23475 7.19824 8.4308 7.07348 8.55266L2.72844 12.7967C1.49165 14.0048 0.715947 16.0447 0.645429 18.2488C0.57491 20.4848 1.2584 22.5247 2.47349 23.7115L13.2086 34.1971C14.4671 35.4264 16.5935 36.237 18.8935 36.3589C21.2206 36.4808 23.3199 35.8608 24.5133 34.6952L28.9885 30.324C29.1133 30.2021 29.314 30.2021 29.4387 30.324C29.5635 30.4458 29.5635 30.6419 29.4387 30.7637L24.9635 35.1349C23.743 36.3377 21.7739 37 19.4956 37ZM33.4312 26.6203C33.3498 26.6203 33.2685 26.5886 33.2034 26.5303C33.0786 26.4084 33.0786 26.2124 33.2034 26.0905L35.3786 23.9658C36.5828 22.7896 37.326 20.8556 37.3585 18.7998C37.3965 16.6858 36.7076 14.7836 35.4762 13.5756L24.2312 2.59191C22.9999 1.38917 20.9494 0.652684 18.747 0.626191C16.5501 0.599699 14.5268 1.2726 13.3334 2.43826L10.5235 5.18285C10.3987 5.30472 10.198 5.30472 10.0732 5.18285C9.94847 5.06099 9.94847 4.86495 10.0732 4.74308L12.8831 1.99849C14.1904 0.716265 16.3874 -0.0308154 18.7525 0.000975265C21.1555 0.0327659 23.3145 0.816935 24.6815 2.14684L35.9265 13.1305C37.2826 14.4551 38.0366 16.5215 37.9986 18.8051C37.9607 21.0199 37.147 23.1128 35.8288 24.4056L33.6536 26.5303C33.5939 26.5886 33.5126 26.6203 33.4312 26.6203Z" fill="#00FF68"/>
</svg>
