<svg width="78" height="77" viewBox="0 0 78 77" fill="none" xmlns="http://www.w3.org/2000/svg">
<g filter="url(#filter0_f_9_3)">
<path d="M39.9651 75C39.5532 75 39.1412 74.9895 38.7187 74.9686C33.9439 74.7073 29.4967 72.9824 26.8347 70.3481L5.94002 49.6603C3.29914 47.0468 1.8625 42.7817 2.01039 37.973C2.15828 33.3107 3.80619 28.9724 6.43651 26.3799L14.8979 18.0065C15.1409 17.7661 15.5317 17.7661 15.7747 18.0065C16.0176 18.2469 16.0176 18.6337 15.7747 18.8742L7.31328 27.2476C4.9048 29.631 3.39421 33.6557 3.25689 38.0044C3.11956 42.4159 4.45057 46.4405 6.8168 48.7822L27.722 69.47C30.1728 71.8953 34.3137 73.4947 38.7926 73.7351C43.3243 73.9755 47.4124 72.7525 49.7364 70.4526L58.4513 61.8284C58.6943 61.5879 59.0851 61.5879 59.3281 61.8284C59.5711 62.0688 59.5711 62.4556 59.3281 62.696L50.6132 71.3203C48.2364 73.6933 44.4018 75 39.9651 75ZM67.1028 54.5212C66.9444 54.5212 66.7859 54.4585 66.6592 54.3435C66.4162 54.1031 66.4162 53.7163 66.6592 53.4759L70.8952 49.2839C73.2403 46.9632 74.6875 43.1476 74.7508 39.0916C74.8248 34.9206 73.4832 31.1677 71.0853 28.7843L49.1871 7.11378C46.7892 4.74079 42.7962 3.28773 38.5074 3.23546C34.2292 3.18319 30.289 4.51081 27.965 6.81062L22.4931 12.2256C22.2501 12.4661 21.8593 12.4661 21.6163 12.2256C21.3733 11.9852 21.3733 11.5984 21.6163 11.358L27.0882 5.94296C29.634 3.41317 33.9122 1.9392 38.5179 2.00192C43.1976 2.06465 47.4019 3.61179 50.0639 6.23567L71.9621 27.9062C74.603 30.5196 76.0713 34.5965 75.9973 39.102C75.9234 43.4717 74.3389 47.6009 71.7719 50.1516L67.536 54.3435C67.4198 54.4585 67.2613 54.5212 67.1028 54.5212Z" fill="#00FF68"/>
</g>
<defs>
<filter id="filter0_f_9_3" x="0" y="0" width="78" height="77" filterUnits="userSpaceOnUse" color-interpolation-filters="sRGB">
<feFlood flood-opacity="0" result="BackgroundImageFix"/>
<feBlend mode="normal" in="SourceGraphic" in2="BackgroundImageFix" result="shape"/>
<feGaussianBlur stdDeviation="1" result="effect1_foregroundBlur_9_3"/>
</filter>
</defs>
</svg>
