<svg width="94" height="93" viewBox="0 0 94 93" fill="none" xmlns="http://www.w3.org/2000/svg">
<g filter="url(#filter0_f_9_13)">
<path d="M47.9651 83C47.5532 83 47.1412 82.9895 46.7187 82.9686C41.9439 82.7073 37.4967 80.9824 34.8347 78.3481L13.94 57.6603C11.2991 55.0468 9.8625 50.7817 10.0104 45.973C10.1583 41.3107 11.8062 36.9724 14.4365 34.3799L22.8979 26.0065C23.1409 25.7661 23.5317 25.7661 23.7747 26.0065C24.0176 26.2469 24.0176 26.6337 23.7747 26.8742L15.3133 35.2476C12.9048 37.631 11.3942 41.6557 11.2569 46.0044C11.1196 50.4159 12.4506 54.4405 14.8168 56.7822L35.722 77.47C38.1728 79.8953 42.3137 81.4947 46.7926 81.7351C51.3243 81.9755 55.4124 80.7525 57.7364 78.4526L66.4513 69.8284C66.6943 69.5879 67.0851 69.5879 67.3281 69.8284C67.5711 70.0688 67.5711 70.4556 67.3281 70.696L58.6132 79.3203C56.2364 81.6933 52.4018 83 47.9651 83ZM75.1028 62.5212C74.9444 62.5212 74.7859 62.4585 74.6592 62.3435C74.4162 62.1031 74.4162 61.7163 74.6592 61.4759L78.8952 57.2839C81.2403 54.9632 82.6875 51.1476 82.7508 47.0916C82.8248 42.9206 81.4832 39.1677 79.0853 36.7843L57.1871 15.1138C54.7892 12.7408 50.7962 11.2877 46.5074 11.2355C42.2292 11.1832 38.289 12.5108 35.965 14.8106L30.4931 20.2256C30.2501 20.4661 29.8593 20.4661 29.6163 20.2256C29.3733 19.9852 29.3733 19.5984 29.6163 19.358L35.0882 13.943C37.634 11.4132 41.9122 9.9392 46.5179 10.0019C51.1976 10.0646 55.4019 11.6118 58.0639 14.2357L79.9621 35.9062C82.603 38.5196 84.0713 42.5965 83.9973 47.102C83.9234 51.4717 82.3389 55.6009 79.7719 58.1516L75.536 62.3435C75.4198 62.4585 75.2613 62.5212 75.1028 62.5212Z" fill="#00FF68"/>
</g>
<defs>
<filter id="filter0_f_9_13" x="0" y="0" width="94" height="93" filterUnits="userSpaceOnUse" color-interpolation-filters="sRGB">
<feFlood flood-opacity="0" result="BackgroundImageFix"/>
<feBlend mode="normal" in="SourceGraphic" in2="BackgroundImageFix" result="shape"/>
<feGaussianBlur stdDeviation="5" result="effect1_foregroundBlur_9_13"/>
</filter>
</defs>
</svg>
