<svg width="116" height="115" viewBox="0 0 116 115" fill="none" xmlns="http://www.w3.org/2000/svg">
<g filter="url(#filter0_f_9_4)">
<path d="M59.4086 111C58.8073 111 58.2061 110.985 57.5894 110.954C50.6209 110.571 44.1303 108.043 40.2452 104.181L9.7503 73.8582C5.89604 70.0276 3.79933 63.776 4.01517 56.7276C4.231 49.8938 6.63606 43.5349 10.4749 39.7349L22.824 27.4616C23.1785 27.1092 23.749 27.1092 24.1036 27.4616C24.4582 27.814 24.4582 28.381 24.1036 28.7334L11.7545 41.0067C8.23943 44.5002 6.0348 50.3994 5.83438 56.7736C5.63395 63.2397 7.5765 69.1389 11.0299 72.5711L41.5402 102.894C45.117 106.449 51.1605 108.794 57.6973 109.146C64.3112 109.498 70.2776 107.706 73.6694 104.335L86.3884 91.6936C86.743 91.3412 87.3134 91.3412 87.668 91.6936C88.0226 92.046 88.0226 92.613 87.668 92.9654L74.949 105.606C71.4801 109.085 65.8838 111 59.4086 111ZM99.015 80.9832C98.7837 80.9832 98.5525 80.8912 98.3674 80.7227C98.0129 80.3703 98.0129 79.8033 98.3674 79.4509L104.55 73.3066C107.972 69.905 110.084 64.3123 110.177 58.3671C110.285 52.2534 108.327 46.7527 104.827 43.2591L72.8677 11.4955C69.368 8.01732 63.5404 5.88749 57.281 5.81088C51.0371 5.73427 45.2866 7.68023 41.8948 11.0512L33.9088 18.9882C33.5542 19.3407 32.9838 19.3407 32.6292 18.9882C32.2746 18.6358 32.2746 18.0689 32.6292 17.7165L40.6152 9.77941C44.3307 6.07136 50.5746 3.91089 57.2965 4.00282C64.1262 4.09476 70.2622 6.36249 74.1473 10.2084L106.107 41.972C109.961 45.8027 112.104 51.7784 111.996 58.3825C111.888 64.7873 109.576 70.8397 105.829 74.5784L99.6471 80.7227C99.4775 80.8912 99.2462 80.9832 99.015 80.9832Z" fill="#00FF68"/>
</g>
<defs>
<filter id="filter0_f_9_4" x="0" y="0" width="116" height="115" filterUnits="userSpaceOnUse" color-interpolation-filters="sRGB">
<feFlood flood-opacity="0" result="BackgroundImageFix"/>
<feBlend mode="normal" in="SourceGraphic" in2="BackgroundImageFix" result="shape"/>
<feGaussianBlur stdDeviation="2" result="effect1_foregroundBlur_9_4"/>
</filter>
</defs>
</svg>
