<svg width="95" height="147" viewBox="0 0 95 147" fill="none" xmlns="http://www.w3.org/2000/svg">
<g filter="url(#filter0_f_9_7)">
<path d="M19.3306 137C20.0432 137 20.7558 136.982 21.4867 136.945C29.7456 136.491 37.4382 133.49 42.0427 128.907L78.1848 92.9158C82.7528 88.3692 85.2378 80.9491 84.982 72.5833C84.7262 64.472 81.8758 56.9246 77.326 52.4144L62.6901 37.8469C62.2699 37.4287 61.5938 37.4287 61.1735 37.8469C60.7533 38.2652 60.7533 38.9381 61.1735 39.3564L75.8095 53.9239C79.9755 58.0704 82.5884 65.0722 82.8259 72.6378C83.0635 80.3125 80.7612 87.3144 76.6682 91.3881L40.5079 127.379C36.2687 131.599 29.1061 134.381 21.3588 134.799C13.52 135.218 6.44876 133.09 2.42891 129.089L-12.6455 114.085C-13.0658 113.667 -13.7419 113.667 -14.1621 114.085C-14.5824 114.503 -14.5824 115.176 -14.1621 115.594L0.912331 130.598C5.02354 134.727 11.6563 137 19.3306 137ZM-27.6103 101.373C-27.3363 101.373 -27.0622 101.263 -26.8429 101.063C-26.4226 100.645 -26.4226 99.9722 -26.8429 99.5539L-34.17 92.2611C-38.2264 88.2237 -40.7297 81.5856 -40.8393 74.5292C-40.9672 67.2728 -38.6467 60.7438 -34.4989 56.5973L3.37905 18.8966C7.52681 14.7682 14.4336 12.2403 21.8521 12.1494C29.2523 12.0584 36.0678 14.3681 40.0876 18.3692L49.5525 27.7898C49.9728 28.2081 50.6488 28.2081 51.0691 27.7898C51.4894 27.3715 51.4894 26.6986 51.0691 26.2803L41.6042 16.8597C37.2006 12.4585 29.8004 9.89423 21.8338 10.0033C13.7393 10.1125 6.46703 12.8041 1.86247 17.3689L-36.0155 55.0696C-40.5835 59.6162 -43.1233 66.709 -42.9954 74.5474C-42.8675 82.1494 -40.1267 89.3331 -35.6866 93.7706L-28.3595 101.063C-28.1585 101.263 -27.8844 101.373 -27.6103 101.373Z" fill="#00FF68"/>
</g>
<defs>
<filter id="filter0_f_9_7" x="-53" y="0" width="148" height="147" filterUnits="userSpaceOnUse" color-interpolation-filters="sRGB">
<feFlood flood-opacity="0" result="BackgroundImageFix"/>
<feBlend mode="normal" in="SourceGraphic" in2="BackgroundImageFix" result="shape"/>
<feGaussianBlur stdDeviation="5" result="effect1_foregroundBlur_9_7"/>
</filter>
</defs>
</svg>
