<svg width="84" height="83" viewBox="0 0 84 83" fill="none" xmlns="http://www.w3.org/2000/svg">
<g filter="url(#filter0_f_9_8)">
<path d="M41.0349 78C41.4468 78 41.8588 77.9895 42.2813 77.9686C47.0561 77.7073 51.5033 75.9824 54.1653 73.3481L75.06 52.6603C77.7009 50.0468 79.1375 45.7817 78.9896 40.973C78.8417 36.3107 77.1938 31.9724 74.5635 29.3799L66.1021 21.0065C65.8591 20.7661 65.4683 20.7661 65.2253 21.0065C64.9824 21.2469 64.9824 21.6337 65.2253 21.8742L73.6867 30.2476C76.0952 32.631 77.6058 36.6557 77.7431 41.0044C77.8804 45.4159 76.5494 49.4405 74.1832 51.7822L53.278 72.47C50.8272 74.8953 46.6863 76.4947 42.2074 76.7351C37.6757 76.9755 33.5876 75.7525 31.2636 73.4526L22.5487 64.8284C22.3057 64.5879 21.9149 64.5879 21.6719 64.8284C21.4289 65.0688 21.4289 65.4556 21.6719 65.696L30.3868 74.3203C32.7636 76.6933 36.5982 78 41.0349 78ZM13.8972 57.5212C14.0556 57.5212 14.2141 57.4585 14.3408 57.3435C14.5838 57.1031 14.5838 56.7163 14.3408 56.4759L10.1048 52.2839C7.75974 49.9632 6.31254 46.1476 6.24915 42.0916C6.17521 37.9206 7.51678 34.1677 9.9147 31.7843L31.8129 10.1138C34.2108 7.74079 38.2038 6.28773 42.4926 6.23546C46.7708 6.18319 50.711 7.51081 53.035 9.81062L58.5069 15.2256C58.7499 15.4661 59.1407 15.4661 59.3837 15.2256C59.6267 14.9852 59.6267 14.5984 59.3837 14.358L53.9118 8.94296C51.366 6.41317 47.0878 4.9392 42.4821 5.00192C37.8024 5.06465 33.5981 6.61179 30.9361 9.23567L9.03793 30.9062C6.39705 33.5196 4.92872 37.5965 5.00266 42.102C5.07661 46.4717 6.66113 50.6009 9.22807 53.1516L13.464 57.3435C13.5802 57.4585 13.7387 57.5212 13.8972 57.5212Z" fill="#00FF68"/>
</g>
<defs>
<filter id="filter0_f_9_8" x="0" y="0" width="84" height="83" filterUnits="userSpaceOnUse" color-interpolation-filters="sRGB">
<feFlood flood-opacity="0" result="BackgroundImageFix"/>
<feBlend mode="normal" in="SourceGraphic" in2="BackgroundImageFix" result="shape"/>
<feGaussianBlur stdDeviation="2.5" result="effect1_foregroundBlur_9_8"/>
</filter>
</defs>
</svg>
