<svg width="116" height="115" viewBox="0 0 116 115" fill="none" xmlns="http://www.w3.org/2000/svg">
<g filter="url(#filter0_f_9_10)">
<path d="M56.5914 111C57.1927 111 57.7939 110.985 58.4106 110.954C65.3791 110.571 71.8697 108.043 75.7548 104.181L106.25 73.8582C110.104 70.0276 112.201 63.776 111.985 56.7276C111.769 49.8938 109.364 43.5349 105.525 39.7349L93.176 27.4616C92.8215 27.1092 92.251 27.1092 91.8964 27.4616C91.5418 27.814 91.5418 28.381 91.8964 28.7334L104.245 41.0067C107.761 44.5002 109.965 50.3994 110.166 56.7736C110.366 63.2397 108.423 69.1389 104.97 72.5711L74.4598 102.894C70.883 106.449 64.8395 108.794 58.3027 109.146C51.6888 109.498 45.7224 107.706 42.3306 104.335L29.6116 91.6936C29.257 91.3412 28.6866 91.3412 28.332 91.6936C27.9774 92.046 27.9774 92.613 28.332 92.9654L41.051 105.606C44.5199 109.085 50.1162 111 56.5914 111ZM16.985 80.9832C17.2163 80.9832 17.4475 80.8912 17.6326 80.7227C17.9871 80.3703 17.9871 79.8033 17.6326 79.4509L11.4503 73.3066C8.02773 69.905 5.9156 64.3123 5.82309 58.3671C5.71517 52.2534 7.67314 46.7527 11.1728 43.2591L43.1323 11.4955C46.632 8.01732 52.4596 5.88749 58.719 5.81088C64.9629 5.73427 70.7134 7.68023 74.1052 11.0512L82.0912 18.9882C82.4458 19.3407 83.0162 19.3407 83.3708 18.9882C83.7254 18.6358 83.7254 18.0689 83.3708 17.7165L75.3848 9.77941C71.6693 6.07136 65.4254 3.91089 58.7035 4.00282C51.8738 4.09476 45.7378 6.36249 41.8527 10.2084L9.8932 41.972C6.03893 45.8027 3.89597 51.7784 4.00388 58.3825C4.1118 64.7873 6.42435 70.8397 10.1707 74.5784L16.3529 80.7227C16.5225 80.8912 16.7538 80.9832 16.985 80.9832Z" fill="#00FF68"/>
</g>
<defs>
<filter id="filter0_f_9_10" x="0" y="0" width="116" height="115" filterUnits="userSpaceOnUse" color-interpolation-filters="sRGB">
<feFlood flood-opacity="0" result="BackgroundImageFix"/>
<feBlend mode="normal" in="SourceGraphic" in2="BackgroundImageFix" result="shape"/>
<feGaussianBlur stdDeviation="2" result="effect1_foregroundBlur_9_10"/>
</filter>
</defs>
</svg>
