<svg width="70" height="69" viewBox="0 0 70 69" fill="none" xmlns="http://www.w3.org/2000/svg">
<path d="M54.3788 3.49661C54.022 3.29062 53.66 3.09368 53.2836 2.90052C49.0179 0.739491 44.3041 0.00964106 40.6815 0.960027L12.2423 8.4289C8.64852 9.37174 5.2718 12.3471 2.99553 16.5855C0.79243 20.6972 0.0504224 25.2782 1.03209 28.8385L4.17316 40.3208C4.26336 40.6505 4.60184 40.8459 4.93247 40.7592C5.2631 40.6724 5.45649 40.3375 5.3663 40.0078L2.22522 28.5255C1.33114 25.2571 2.03526 21.0164 4.0907 17.1816C6.1775 13.2925 9.34252 10.4725 12.5625 9.62775L41.0109 2.16416C44.346 1.28919 48.7318 1.97452 52.7309 4.00576C56.7757 6.06342 59.7046 9.16668 60.5673 12.3204L63.8025 24.1467C63.8927 24.4764 64.2311 24.6718 64.5618 24.5851C64.8924 24.4983 65.0858 24.1634 64.9956 23.8336L61.7604 12.0073C60.8885 8.76388 58.2211 5.71495 54.3788 3.49661ZM67.6413 34.8006C67.5041 34.7214 67.3355 34.6965 67.1683 34.7327C66.8376 34.8194 66.6442 35.1544 66.7344 35.4841L68.3069 41.2324C69.1775 44.4147 68.523 48.4427 66.5499 51.9871C64.5284 55.6362 61.4901 58.2155 58.2218 59.0807L28.4221 66.8988C25.159 67.7549 20.9744 67.0168 17.234 64.9176C13.5029 62.8238 10.7544 59.7039 9.89164 56.5503L7.86033 49.1248C7.77014 48.7951 7.43165 48.5996 7.10103 48.6864C6.7704 48.7731 6.57701 49.1081 6.6672 49.4378L8.6985 56.8633C9.63835 60.3271 12.6064 63.7427 16.6264 65.9912C20.7105 68.2767 25.1251 69.039 28.7424 68.0976L58.542 60.2795C62.1358 59.3367 65.4459 56.5401 67.6346 52.6012C69.7554 48.7801 70.4477 44.4118 69.5001 40.9194L67.9276 35.1711C67.8844 35.0134 67.7786 34.8798 67.6413 34.8006Z" fill="#00FF68"/>
</svg>
