<svg width="36" height="35" viewBox="0 0 36 35" fill="none" xmlns="http://www.w3.org/2000/svg">
<path opacity="0.5" d="M27.5894 1.74784C27.4062 1.64206 27.2204 1.54087 27.0272 1.44156C24.8375 0.330333 22.4227 -0.0544129 20.5712 0.418423L6.03623 4.13439C4.19948 4.60347 2.4797 6.10675 1.32683 8.25547C0.211045 10.3399 -0.15553 12.6673 0.357207 14.4806L1.99809 20.3286C2.04521 20.4965 2.21903 20.5969 2.38801 20.5537C2.55699 20.5106 2.65501 20.3408 2.60789 20.1729L0.967007 14.3249C0.499939 12.6603 0.848108 10.5059 1.88911 8.56175C2.94601 6.59011 4.55788 5.16525 6.20361 4.74495L20.7433 1.03169C22.4478 0.596384 24.6947 0.957535 26.7474 2.00199C28.8237 3.06001 30.3318 4.64653 30.7825 6.25271L32.4725 12.2759C32.5196 12.4438 32.6935 12.5442 32.8624 12.501C33.0314 12.4579 33.1294 12.2881 33.0823 12.1202L31.3923 6.09698C30.9366 4.44511 29.5625 2.88699 27.5894 1.74784ZM34.4682 17.7047C34.3977 17.664 34.3114 17.6508 34.2258 17.6688C34.0569 17.7119 33.9588 17.8817 34.006 18.0496L34.8274 20.9773C35.2822 22.598 34.9588 24.6444 33.9591 26.4411C32.935 28.2909 31.3873 29.5938 29.7169 30.0243L14.4866 33.9139C12.8188 34.3398 10.6748 33.9524 8.75425 32.8742C6.83841 31.7987 5.42259 30.2042 4.97191 28.5981L3.91077 24.8162C3.86365 24.6483 3.68983 24.5479 3.52085 24.5911C3.35187 24.6343 3.25385 24.804 3.30097 24.972L4.36211 28.7538C4.85316 30.5179 6.38222 32.2633 8.44634 33.4184C10.5433 34.5924 12.8051 34.9927 14.6539 34.5245L29.8842 30.6348C31.721 30.1658 33.4072 28.7532 34.5161 26.7566C35.5906 24.8195 35.9324 22.6002 35.4372 20.8215L34.6158 17.8939C34.5932 17.8136 34.5387 17.7454 34.4682 17.7047Z" fill="#00FF68"/>
</svg>
