<svg width="114" height="113" viewBox="0 0 114 113" fill="none" xmlns="http://www.w3.org/2000/svg">
<g filter="url(#filter0_f_9_12)">
<path d="M55.774 103C56.2973 103 56.8206 102.987 57.3574 102.96C63.4226 102.627 69.0718 100.43 72.4532 97.0736L98.9951 70.7179C102.35 67.3885 104.175 61.9548 103.987 55.8287C103.799 49.889 101.706 44.3621 98.3644 41.0593L87.6162 30.3919C87.3076 30.0856 86.8111 30.0856 86.5025 30.3919C86.1938 30.6982 86.1938 31.1909 86.5025 31.4972L97.2507 42.1647C100.31 45.2011 102.229 50.3285 102.403 55.8686C102.578 61.4887 100.887 66.616 97.8814 69.5992L71.3261 95.9549C68.213 99.0446 62.9529 101.082 57.2635 101.389C51.5069 101.695 46.3139 100.137 43.3619 97.2068L32.2916 86.2197C31.9829 85.9134 31.4865 85.9134 31.1778 86.2197C30.8692 86.526 30.8692 87.0188 31.1778 87.3251L42.2481 98.3122C45.2673 101.335 50.1382 103 55.774 103ZM21.3018 76.9106C21.5031 76.9106 21.7044 76.8307 21.8654 76.6842C22.174 76.3779 22.174 75.8851 21.8654 75.5788L16.4845 70.2384C13.5056 67.2819 11.6673 62.4209 11.5868 57.2537C11.4928 51.9399 13.197 47.1589 16.243 44.1224L44.0596 16.5148C47.1056 13.4917 52.1778 11.6405 57.6258 11.5739C63.0603 11.5074 68.0654 13.1987 71.0175 16.1286L77.9683 23.0272C78.2769 23.3335 78.7734 23.3335 79.082 23.0272C79.3906 22.7209 79.3906 22.2281 79.082 21.9218L72.1312 15.0232C68.8973 11.8003 63.4628 9.92255 57.6123 10.0025C51.6679 10.0824 46.3274 12.0534 42.9459 15.3961L15.1293 43.0037C11.7746 46.3332 9.90945 51.5271 10.0034 57.267C10.0973 62.8338 12.1101 68.0943 15.3708 71.3438L20.7516 76.6842C20.8992 76.8307 21.1005 76.9106 21.3018 76.9106Z" fill="#00FF68"/>
</g>
<defs>
<filter id="filter0_f_9_12" x="0" y="0" width="114" height="113" filterUnits="userSpaceOnUse" color-interpolation-filters="sRGB">
<feFlood flood-opacity="0" result="BackgroundImageFix"/>
<feBlend mode="normal" in="SourceGraphic" in2="BackgroundImageFix" result="shape"/>
<feGaussianBlur stdDeviation="5" result="effect1_foregroundBlur_9_12"/>
</filter>
</defs>
</svg>
