<svg width="38" height="37" viewBox="0 0 38 37" fill="none" xmlns="http://www.w3.org/2000/svg">
<path opacity="0.3" d="M18.5044 37C18.7159 37 18.9275 36.9947 19.1445 36.9841C21.5964 36.8516 23.8801 35.9774 25.2471 34.6422L35.9767 24.1566C37.3329 22.832 38.0706 20.6702 37.9947 18.2329C37.9187 15.8698 37.0725 13.671 35.7218 12.3569L31.3768 8.11289C31.252 7.99103 31.0513 7.99103 30.9265 8.11289C30.8018 8.23475 30.8018 8.4308 30.9265 8.55266L35.2716 12.7967C36.5083 14.0048 37.2841 16.0447 37.3546 18.2488C37.4251 20.4848 36.7416 22.5247 35.5265 23.7115L24.7914 34.1971C23.5329 35.4264 21.4065 36.237 19.1065 36.3589C16.7794 36.4808 14.6801 35.8608 13.4867 34.6952L9.01148 30.324C8.88672 30.2021 8.68601 30.2021 8.56125 30.324C8.43649 30.4458 8.43649 30.6419 8.56125 30.7637L13.0365 35.1349C14.257 36.3377 16.2261 37 18.5044 37ZM4.56881 26.6203C4.65018 26.6203 4.73154 26.5886 4.79664 26.5303C4.92141 26.4084 4.92141 26.2124 4.79664 26.0905L2.62141 23.9658C1.41717 22.7896 0.674007 20.8556 0.64146 18.7998C0.603489 16.6858 1.2924 14.7836 2.52377 13.5756L13.7688 2.59191C15.0001 1.38917 17.0506 0.652684 19.253 0.626191C21.4499 0.599699 23.4732 1.2726 24.6666 2.43826L27.4765 5.18285C27.6013 5.30472 27.802 5.30472 27.9268 5.18285C28.0515 5.06099 28.0515 4.86495 27.9268 4.74308L25.1169 1.99849C23.8096 0.716265 21.6126 -0.0308154 19.2475 0.000975265C16.8445 0.0327659 14.6855 0.816935 13.3185 2.14684L2.07353 13.1305C0.717403 14.4551 -0.036602 16.5215 0.00136948 18.8051C0.039341 21.0199 0.853016 23.1128 2.17117 24.4056L4.3464 26.5303C4.40607 26.5886 4.48744 26.6203 4.56881 26.6203Z" fill="#00FF68"/>
</svg>
